HIERARCHY
ROOT Hips
{
	OFFSET 0.000000 71.427986 0.000000
	CHANNELS 6 Xposition Yposition Zposition Xrotation Yrotation Zrotation
	JOINT Pelvis
	{
		OFFSET 0.000000 0.000000 0.000000
		CHANNELS 3 Xrotation Yrotation Zrotation
		JOINT LeftUpLeg
		{
			OFFSET 6.797100 -2.508499 -1.318700
			CHANNELS 3 Xrotation Yrotation Zrotation
			JOINT LeftLeg
			{
				OFFSET 0.069008 -29.241863 0.690200
				CHANNELS 3 Xrotation Yrotation Zrotation
				JOINT LeftFoot
				{
					OFFSET -0.069008 -29.568123 -0.266800
					CHANNELS 3 Xrotation Yrotation Zrotation
					JOINT LeftToeBase
					{
						OFFSET 3.145500 -8.631000 16.059900
						CHANNELS 3 Xrotation Yrotation Zrotation
						End Site
						{
							OFFSET 0.000000 18.501587 0.000000
						}
					}
				}
			}
			JOINT Left_ShortSleeve
			{
				OFFSET 0.265923 -10.480953 1.153800
				CHANNELS 3 Xrotation Yrotation Zrotation
				End Site
				{
					OFFSET 1.725763 19.823879 0.000000
				}
			}
		}
		JOINT RightUpLeg
		{
			OFFSET -6.797100 -2.508499 -1.318700
			CHANNELS 3 Xrotation Yrotation Zrotation
			JOINT RightLeg
			{
				OFFSET -0.082453 -29.241932 0.688000
				CHANNELS 3 Xrotation Yrotation Zrotation
				JOINT RightFoot
				{
					OFFSET 0.082453 -29.568058 -0.264600
					CHANNELS 3 Xrotation Yrotation Zrotation
					JOINT RightToeBase
					{
						OFFSET -3.115300 -8.682800 16.113400
						CHANNELS 3 Xrotation Yrotation Zrotation
						End Site
						{
							OFFSET 0.000000 18.567114 0.000000
						}
					}
				}
			}
			JOINT Right_ShortSleeve
			{
				OFFSET -0.265923 -10.480953 1.153800
				CHANNELS 3 Xrotation Yrotation Zrotation
				End Site
				{
					OFFSET -1.725766 19.823910 0.000000
				}
			}
		}
	}
	JOINT Spine
	{
		OFFSET 0.000000 13.368103 0.470500
		CHANNELS 3 Xrotation Yrotation Zrotation
		JOINT Spine1
		{
			OFFSET 0.147000 13.837402 0.538800
			CHANNELS 3 Xrotation Yrotation Zrotation
			JOINT Spine2
			{
				OFFSET 0.168000 16.242897 -1.435500
				CHANNELS 3 Xrotation Yrotation Zrotation
				JOINT Neck
				{
					OFFSET 0.217200 18.631500 -1.679100
					CHANNELS 3 Xrotation Yrotation Zrotation
					JOINT Head
					{
						OFFSET 0.000000 6.599396 1.385900
						CHANNELS 3 Xrotation Yrotation Zrotation
						JOINT Hat
						{
							OFFSET -0.532200 27.220596 -10.096100
							CHANNELS 3 Xrotation Yrotation Zrotation
							End Site
							{
								OFFSET 0.000000 22.029861 0.000000
							}
						}
						JOINT HairD
						{
							OFFSET -10.777400 17.437393 -1.325900
							CHANNELS 3 Xrotation Yrotation Zrotation
							JOINT HairD1
							{
								OFFSET -3.290299 -11.051193 1.062200
								CHANNELS 3 Xrotation Yrotation Zrotation
								End Site
								{
									OFFSET 0.000000 11.579437 0.000000
								}
							}
						}
						JOINT HairB
						{
							OFFSET -10.777400 17.437393 1.467900
							CHANNELS 3 Xrotation Yrotation Zrotation
							JOINT HairB1
							{
								OFFSET -1.561200 -12.956299 3.590200
								CHANNELS 3 Xrotation Yrotation Zrotation
								End Site
								{
									OFFSET 0.000000 13.534866 0.000000
								}
							}
						}
						JOINT HairA
						{
							OFFSET 9.713100 17.437393 1.467900
							CHANNELS 3 Xrotation Yrotation Zrotation
							JOINT HairA1
							{
								OFFSET 1.561200 -12.956299 3.590200
								CHANNELS 3 Xrotation Yrotation Zrotation
								End Site
								{
									OFFSET 0.000000 13.534866 0.000000
								}
							}
						}
						JOINT HairC
						{
							OFFSET 9.713100 17.437393 -1.325900
							CHANNELS 3 Xrotation Yrotation Zrotation
							JOINT HairC1
							{
								OFFSET 3.290300 -11.051193 1.062200
								CHANNELS 3 Xrotation Yrotation Zrotation
								End Site
								{
									OFFSET 0.000000 11.579437 0.000000
								}
							}
						}
					}
				}
				JOINT LeftShoulder
				{
					OFFSET 5.101800 15.108002 -2.763700
					CHANNELS 3 Xrotation Yrotation Zrotation
					JOINT LeftArm
					{
						OFFSET 9.825497 2.506317 -1.597400
						CHANNELS 3 Xrotation Yrotation Zrotation
						JOINT LeftForeArm
						{
							OFFSET 21.966244 0.000000 0.000000
							CHANNELS 3 Xrotation Yrotation Zrotation
							JOINT LeftHand
							{
								OFFSET 33.879036 0.000000 0.000000
								CHANNELS 3 Xrotation Yrotation Zrotation
								JOINT LeftHandThumb1
								{
									OFFSET 6.715286 -2.359680 3.363841
									CHANNELS 3 Xrotation Yrotation Zrotation
									JOINT LeftHandThumb2
									{
										OFFSET 2.507072 -1.447464 1.447461
										CHANNELS 3 Xrotation Yrotation Zrotation
										JOINT LeftHandThumb3
										{
											OFFSET 2.898338 -1.673355 1.673357
											CHANNELS 3 Xrotation Yrotation Zrotation
											End Site
											{
												OFFSET -0.295959 3.727692 -0.131651
											}
										}
									}
								}
								JOINT LeftHandIndex1
								{
									OFFSET 14.190811 -0.254547 3.840278
									CHANNELS 3 Xrotation Yrotation Zrotation
									JOINT LeftHandIndex2
									{
										OFFSET 3.551727 0.000000 -0.000000
										CHANNELS 3 Xrotation Yrotation Zrotation
										JOINT LeftHandIndex3
										{
											OFFSET 2.894196 0.000000 0.000000
											CHANNELS 3 Xrotation Yrotation Zrotation
											End Site
											{
												OFFSET -1.000603 2.690872 0.366626
											}
										}
									}
								}
								JOINT LeftHandMiddle1
								{
									OFFSET 13.776489 0.000000 0.000000
									CHANNELS 3 Xrotation Yrotation Zrotation
									JOINT LeftHandMiddle2
									{
										OFFSET 3.438232 0.000000 0.000000
										CHANNELS 3 Xrotation Yrotation Zrotation
										JOINT LeftHandMiddle3
										{
											OFFSET 3.691551 0.000000 0.000000
											CHANNELS 3 Xrotation Yrotation Zrotation
											End Site
											{
												OFFSET -1.082298 3.499527 0.457670
											}
										}
									}
								}
								JOINT LeftHandRing1
								{
									OFFSET 13.966164 -0.268127 -3.067488
									CHANNELS 3 Xrotation Yrotation Zrotation
									JOINT LeftHandRing2
									{
										OFFSET 3.162567 0.000000 0.000000
										CHANNELS 3 Xrotation Yrotation Zrotation
										JOINT LeftHandRing3
										{
											OFFSET 3.324348 0.000000 0.000000
											CHANNELS 3 Xrotation Yrotation Zrotation
											End Site
											{
												OFFSET -0.861900 3.184998 0.405154
											}
										}
									}
								}
								JOINT LeftHandPinky1
								{
									OFFSET 13.131393 -0.168503 -5.746925
									CHANNELS 3 Xrotation Yrotation Zrotation
									JOINT LeftHandPinky2
									{
										OFFSET 2.849182 0.000000 0.000000
										CHANNELS 3 Xrotation Yrotation Zrotation
										JOINT LeftHandPinky3
										{
											OFFSET 2.805038 0.000000 0.000000
											CHANNELS 3 Xrotation Yrotation Zrotation
											End Site
											{
												OFFSET -0.882500 2.642609 0.325652
											}
										}
									}
								}
							}
							JOINT Left_Sleeve
							{
								OFFSET 6.592125 -0.646545 0.805568
								CHANNELS 3 Xrotation Yrotation Zrotation
								End Site
								{
									OFFSET -0.000179 20.275787 -0.000000
								}
							}
						}
					}
				}
				JOINT RightShoulder
				{
					OFFSET -5.731700 15.108002 -2.763700
					CHANNELS 3 Xrotation Yrotation Zrotation
					JOINT RightArm
					{
						OFFSET -9.825497 2.506317 -1.597400
						CHANNELS 3 Xrotation Yrotation Zrotation
						JOINT RightForeArm
						{
							OFFSET -21.966242 0.000000 0.000000
							CHANNELS 3 Xrotation Yrotation Zrotation
							JOINT RightHand
							{
								OFFSET -33.879032 0.000000 0.000000
								CHANNELS 3 Xrotation Yrotation Zrotation
								JOINT RightHandThumb1
								{
									OFFSET -6.715286 -2.359680 3.363841
									CHANNELS 3 Xrotation Yrotation Zrotation
									JOINT RightHandThumb2
									{
										OFFSET -2.507072 -1.447464 1.447461
										CHANNELS 3 Xrotation Yrotation Zrotation
										JOINT RightHandThumb3
										{
											OFFSET -2.898338 -1.673355 1.673357
											CHANNELS 3 Xrotation Yrotation Zrotation
											End Site
											{
												OFFSET 0.295959 3.727692 -0.131651
											}
										}
									}
								}
								JOINT RightHandIndex1
								{
									OFFSET -14.190811 -0.254547 3.840278
									CHANNELS 3 Xrotation Yrotation Zrotation
									JOINT RightHandIndex2
									{
										OFFSET -3.551727 0.000000 -0.000000
										CHANNELS 3 Xrotation Yrotation Zrotation
										JOINT RightHandIndex3
										{
											OFFSET -2.894196 0.000000 0.000000
											CHANNELS 3 Xrotation Yrotation Zrotation
											End Site
											{
												OFFSET 1.000603 2.690872 0.366626
											}
										}
									}
								}
								JOINT RightHandMiddle1
								{
									OFFSET -13.776489 0.000000 0.000000
									CHANNELS 3 Xrotation Yrotation Zrotation
									JOINT RightHandMiddle2
									{
										OFFSET -3.438232 0.000000 0.000000
										CHANNELS 3 Xrotation Yrotation Zrotation
										JOINT RightHandMiddle3
										{
											OFFSET -3.691551 0.000000 0.000000
											CHANNELS 3 Xrotation Yrotation Zrotation
											End Site
											{
												OFFSET 1.082298 3.499527 0.457670
											}
										}
									}
								}
								JOINT RightHandRing1
								{
									OFFSET -13.966164 -0.268127 -3.067488
									CHANNELS 3 Xrotation Yrotation Zrotation
									JOINT RightHandRing2
									{
										OFFSET -3.162567 0.000000 0.000000
										CHANNELS 3 Xrotation Yrotation Zrotation
										JOINT RightHandRing3
										{
											OFFSET -3.324348 0.000000 0.000000
											CHANNELS 3 Xrotation Yrotation Zrotation
											End Site
											{
												OFFSET 0.861900 3.184998 0.405154
											}
										}
									}
								}
								JOINT RightHandPinky1
								{
									OFFSET -13.131393 -0.168503 -5.746925
									CHANNELS 3 Xrotation Yrotation Zrotation
									JOINT RightHandPinky2
									{
										OFFSET -2.849182 0.000000 0.000000
										CHANNELS 3 Xrotation Yrotation Zrotation
										JOINT RightHandPinky3
										{
											OFFSET -2.805038 0.000000 0.000000
											CHANNELS 3 Xrotation Yrotation Zrotation
											End Site
											{
												OFFSET 0.882500 2.642609 0.325652
											}
										}
									}
								}
							}
							JOINT Right_Sleeve
							{
								OFFSET -6.592125 -0.646545 0.805568
								CHANNELS 3 Xrotation Yrotation Zrotation
								End Site
								{
									OFFSET 0.000179 20.275787 -0.000000
								}
							}
						}
					}
				}
				JOINT Bind_Right_JacketString
				{
					OFFSET -3.534800 11.969597 7.200700
					CHANNELS 3 Xrotation Yrotation Zrotation
					JOINT Bind_Right_JacketString1
					{
						OFFSET -0.319900 -6.102600 2.794100
						CHANNELS 3 Xrotation Yrotation Zrotation
						End Site
						{
							OFFSET 0.000000 6.719452 0.000000
						}
					}
				}
				JOINT Bind_Left_JacketString
				{
					OFFSET 2.904800 11.969597 7.200700
					CHANNELS 3 Xrotation Yrotation Zrotation
					JOINT Bind_Left_JacketString1
					{
						OFFSET 0.364800 -5.904503 3.186800
						CHANNELS 3 Xrotation Yrotation Zrotation
						End Site
						{
							OFFSET 0.000000 6.719513 0.000000
						}
					}
				}
				JOINT HairE
				{
					OFFSET 5.915200 17.612701 -11.592200
					CHANNELS 3 Xrotation Yrotation Zrotation
					JOINT HairE1
					{
						OFFSET 0.289200 -7.171898 -1.284500
						CHANNELS 3 Xrotation Yrotation Zrotation
						End Site
						{
							OFFSET 0.000000 7.291756 0.000000
						}
					}
				}
				JOINT HairF
				{
					OFFSET -0.864800 17.612701 -11.592200
					CHANNELS 3 Xrotation Yrotation Zrotation
					JOINT HairF1
					{
						OFFSET 0.000000 -14.087097 -2.127501
						CHANNELS 3 Xrotation Yrotation Zrotation
						End Site
						{
							OFFSET 0.000000 14.246841 0.000000
						}
					}
				}
				JOINT HairG
				{
					OFFSET -8.087700 17.612701 -11.592200
					CHANNELS 3 Xrotation Yrotation Zrotation
					JOINT HairG1
					{
						OFFSET -0.293600 -6.081398 -0.910100
						CHANNELS 3 Xrotation Yrotation Zrotation
						End Site
						{
							OFFSET 0.000000 6.156120 0.000000
						}
					}
				}
			}
		}
	}
	JOINT Pouch
	{
		OFFSET 0.000000 4.394501 10.847300
		CHANNELS 3 Xrotation Yrotation Zrotation
		End Site
		{
			OFFSET 0.000000 21.880577 0.000000
		}
	}
	JOINT Bag
	{
		OFFSET -13.229000 4.813004 -0.593300
		CHANNELS 3 Xrotation Yrotation Zrotation
		End Site
		{
			OFFSET 0.000000 21.880577 0.000000
		}
	}
	JOINT OccupyGuyFacialAnim_Joint
	{
		OFFSET 1.000000 -70.206398 -1.655000
		CHANNELS 3 Xrotation Yrotation Zrotation
		End Site
		{
			OFFSET 0.000000 21.880577 0.000000
		}
	}
}
MOTION
Frames: 4
Frame Time: 0.016667
-0.046426 76.662407 -1.670227 -90.676635 -2.032686 1.877587 -0.000000 0.000000 -0.000000 -1.659585 20.977415 14.135176 3.653292 0.839644 1.553693 20.182961 30.317591 -25.647948 0.000001 0.000000 0.000000 -0.000000 -0.000001 0.000000 -2.310451 -21.099532 -15.839458 0.545967 -5.443665 -4.742523 31.995639 -30.234314 30.539200 -0.000001 0.000001 -0.000000 0.000000 0.000001 -0.000000 0.643418 -0.162876 -0.952572 0.768334 0.010520 -0.441587 0.794644 0.003108 -0.423897 -4.679082 4.214175 -8.229254 4.592470 8.465929 -14.419375 0.000000 0.000001 0.000000 0.000000 0.000001 0.000000 0.000000 0.000001 -0.000000 0.000000 0.000001 -0.000001 -0.000000 -0.000000 0.000000 0.000000 0.000001 -0.000001 -0.000000 -0.000000 0.000000 0.000000 0.000001 0.000000 0.000000 0.000001 0.000000 0.826372 -6.003513 -3.769292 44.058163 -39.817086 -34.619586 0.000504 -83.309463 0.000520 -22.984427 -8.371327 7.116301 -1.945776 1.585338 13.204799 8.601847 21.114939 -0.258288 0.000001 -0.000002 -0.000000 0.776304 5.158042 -28.512495 0.566013 2.514168 -25.370944 0.000004 -0.000001 -0.000002 0.776308 5.158040 -28.512495 0.566014 2.514175 -25.370937 0.000002 0.000001 -0.000001 0.776308 5.158018 -28.512498 0.351473 2.000420 -19.928006 -0.000001 0.000001 -0.000002 0.776302 5.158033 -28.512500 0.064897 0.870545 -8.527013 -0.000001 -0.000000 0.000001 -0.000001 -0.000003 -0.000003 0.512002 4.220235 2.974418 -4.382365 2.494177 83.944172 0.000030 129.402428 -0.000031 -0.000550 -5.590397 64.849607 -1.120905 -3.665706 -6.555838 8.244861 -30.620776 -3.274782 -0.000000 -0.000002 0.000003 4.540602 -8.344342 48.387396 6.575526 -4.244494 114.349101 -0.000001 -0.000001 -0.000002 2.375464 -6.542211 44.640214 7.222618 -3.888180 123.454822 0.000001 0.000001 -0.000001 2.745571 -6.923838 44.442289 7.225014 -3.886615 123.490298 -0.000002 0.000001 -0.000001 -10.268035 -14.528506 47.436285 6.314156 -4.353049 110.862904 0.000000 0.000001 0.000002 -0.000000 -0.000002 0.000001 0.000000 -0.000000 -0.000000 0.000000 -0.000000 -0.000000 0.000000 -0.000000 -0.000000 0.000000 -0.000000 -0.000000 0.000000 -0.000000 -0.000000 0.000000 -0.000000 -0.000000 0.000000 -0.000000 -0.000000 0.000000 -0.000000 -0.000000 0.000000 -0.000000 -0.000000 0.000000 -0.000000 -0.000000 -0.000000 0.000000 -0.000000 -0.000000 0.000000 -0.000000 -0.000000 0.000000 -0.000000 
-0.043493 76.662308 -1.669960 -90.684312 -2.028326 1.875349 -0.000000 0.000000 0.000000 -1.659155 20.979390 14.136934 3.664835 0.845042 1.553694 20.174895 30.315702 -25.642784 -0.000000 0.000005 -0.000001 0.000001 0.000000 -0.000002 -2.296369 -21.100941 -15.838638 0.537726 -5.453943 -4.742716 31.998685 -30.233306 30.544288 0.000000 0.000001 0.000000 -0.000000 0.000000 0.000001 0.643745 -0.163080 -0.945711 0.775539 0.010199 -0.441929 0.799318 0.002338 -0.423854 -4.701092 4.246302 -8.217698 5.074997 8.483807 -14.697201 -0.000001 0.000001 0.000001 -0.000001 0.000001 0.000001 -0.000001 0.000001 0.000000 -0.000001 0.000001 0.000001 -0.000000 -0.000000 -0.000003 -0.000001 0.000001 0.000001 -0.000000 -0.000000 -0.000003 -0.000001 0.000001 0.000001 -0.000001 0.000001 0.000001 0.821166 -6.021018 -3.761134 44.049492 -39.812988 -34.639031 0.000013 -83.307155 -0.000025 -22.981565 -8.387156 7.124583 -1.945776 1.585338 13.204804 8.601848 21.114934 -0.258292 -0.000002 0.000003 0.000000 0.776302 5.158042 -28.512495 0.566013 2.514165 -25.370943 0.000001 0.000001 0.000002 0.776303 5.158039 -28.512492 0.566014 2.514169 -25.370932 -0.000001 -0.000002 0.000000 0.776301 5.158019 -28.512495 0.351471 2.000425 -19.928008 -0.000002 0.000002 -0.000001 0.776298 5.158033 -28.512500 0.064898 0.870546 -8.527012 0.000002 0.000002 0.000001 0.000001 0.000000 -0.000000 0.506634 4.242360 2.977800 -4.368380 2.476189 83.932848 0.000033 129.413493 -0.000025 -0.003269 -5.593536 64.841950 -1.120898 -3.665706 -6.555842 8.244861 -30.620780 -3.274787 0.000004 -0.000000 0.000003 4.540605 -8.344344 48.387403 6.575529 -4.244493 114.349101 -0.000001 -0.000000 0.000000 2.375466 -6.542212 44.640207 7.222619 -3.888180 123.454822 0.000001 0.000001 0.000001 2.745570 -6.923840 44.442286 7.225017 -3.886614 123.490298 -0.000000 0.000001 -0.000002 -10.268031 -14.528504 47.436279 6.314159 -4.353046 110.862904 -0.000000 0.000001 -0.000003 -0.000000 -0.000000 -0.000000 -0.000000 0.000000 -0.000000 -0.000000 0.000000 -0.000000 -0.000000 0.000000 -0.000000 -0.000000 0.000000 -0.000000 -0.000000 0.000000 -0.000000 -0.000000 0.000000 -0.000000 -0.000000 0.000000 -0.000000 -0.000000 0.000000 -0.000000 -0.000000 0.000000 -0.000000 -0.000000 0.000000 -0.000000 -0.000000 0.000000 0.000000 -0.000000 0.000000 0.000000 -0.000000 0.000000 0.000000 
-0.040382 76.662109 -1.669365 -90.691996 -2.023913 1.872968 -0.000000 -0.000000 -0.000000 -1.659857 20.980656 14.139471 3.681007 0.848231 1.553695 20.165170 30.313213 -25.642183 -0.000000 0.000004 -0.000001 -0.000000 -0.000001 0.000000 -2.285652 -21.101333 -15.838778 0.536270 -5.466398 -4.742926 31.998852 -30.232576 30.550405 -0.000000 -0.000000 0.000001 -0.000000 0.000002 0.000000 0.644016 -0.163232 -0.937955 0.783323 0.010057 -0.442169 0.801151 0.001820 -0.423847 -4.737151 4.281858 -8.205620 5.647819 8.498317 -15.023529 0.000000 -0.000000 0.000001 0.000000 -0.000000 0.000001 0.000000 -0.000000 0.000001 0.000000 -0.000000 0.000001 0.000000 -0.000001 0.000001 0.000000 -0.000000 0.000001 0.000000 -0.000001 0.000001 0.000000 -0.000000 0.000001 0.000000 -0.000000 0.000001 0.816274 -6.034781 -3.754557 44.044909 -39.812353 -34.650158 0.000320 -83.304136 0.000333 -22.980142 -8.404205 7.133054 -1.945777 1.585339 13.204803 8.601846 21.114936 -0.258286 -0.000000 0.000004 -0.000004 0.776303 5.158046 -28.512490 0.566014 2.514167 -25.370946 -0.000001 0.000004 0.000000 0.776304 5.158038 -28.512490 0.566014 2.514173 -25.370937 0.000001 -0.000002 0.000000 0.776304 5.158022 -28.512492 0.351469 2.000425 -19.928006 -0.000000 0.000003 -0.000002 0.776298 5.158033 -28.512495 0.064896 0.870546 -8.527013 -0.000001 0.000002 0.000001 -0.000001 -0.000002 -0.000000 0.501671 4.258664 2.981408 -4.356460 2.463907 83.921831 0.000013 129.421908 -0.000001 -0.006381 -5.596625 64.834177 -1.120900 -3.665708 -6.555844 8.244861 -30.620773 -3.274786 -0.000000 0.000000 0.000004 4.540604 -8.344345 48.387399 6.575528 -4.244491 114.349094 0.000002 0.000000 0.000002 2.375466 -6.542212 44.640207 7.222617 -3.888180 123.454822 0.000003 0.000000 -0.000001 2.745577 -6.923839 44.442282 7.225015 -3.886613 123.490298 0.000004 -0.000000 0.000001 -10.268029 -14.528506 47.436275 6.314158 -4.353046 110.862904 -0.000000 -0.000001 -0.000001 -0.000000 0.000005 0.000000 -0.000000 0.000000 -0.000000 -0.000000 0.000000 -0.000000 -0.000000 0.000000 -0.000000 -0.000000 0.000000 -0.000000 -0.000000 0.000000 -0.000000 -0.000000 0.000000 -0.000000 -0.000000 0.000000 -0.000000 -0.000000 0.000000 -0.000000 -0.000000 0.000000 -0.000000 -0.000000 0.000000 -0.000000 -0.000000 -0.000000 -0.000000 -0.000000 -0.000000 -0.000000 -0.000000 -0.000000 -0.000000 
-0.037211 76.661743 -1.668472 -90.698936 -2.019492 1.870649 0.000000 0.000000 -0.000000 -1.663046 20.981175 14.142621 3.692805 0.804965 1.553705 20.168203 30.308380 -25.650688 -0.000000 0.000002 -0.000000 -0.000000 0.000001 0.000001 -2.276325 -21.102090 -15.838379 0.531015 -5.452581 -4.743169 32.011270 -30.231746 30.554424 -0.000001 -0.000001 -0.000000 -0.000000 0.000001 0.000000 0.644126 -0.163318 -0.929678 0.790635 0.010042 -0.442317 0.802104 0.001533 -0.423875 -4.784990 4.319759 -8.193457 6.265794 8.513242 -15.381154 -0.000000 0.000001 0.000000 -0.000000 0.000001 0.000000 -0.000000 0.000001 -0.000000 -0.000000 0.000001 0.000000 0.000000 0.000000 -0.000001 -0.000000 0.000001 0.000000 0.000000 0.000000 -0.000001 -0.000000 0.000001 0.000000 -0.000000 0.000001 0.000000 0.814084 -6.042072 -3.750281 44.046367 -39.816205 -34.649235 0.000024 -83.299403 0.000030 -22.982827 -8.421630 7.140848 -1.945777 1.585338 13.204806 8.601849 21.114937 -0.258290 -0.000003 0.000001 -0.000003 0.776301 5.158043 -28.512490 0.566013 2.514165 -25.370944 0.000000 0.000003 0.000000 0.776303 5.158040 -28.512492 0.566014 2.514174 -25.370934 0.000001 0.000001 0.000001 0.776304 5.158019 -28.512490 0.351471 2.000426 -19.928008 -0.000002 0.000000 0.000000 0.776299 5.158035 -28.512500 0.064898 0.870551 -8.527013 -0.000001 -0.000001 0.000003 0.000001 -0.000001 -0.000003 0.495734 4.266200 2.985394 -4.348703 2.459896 83.910301 0.000014 129.426484 -0.000001 -0.009927 -5.599724 64.826637 -1.120898 -3.665709 -6.555838 8.244861 -30.620780 -3.274786 -0.000001 0.000002 0.000006 4.540607 -8.344345 48.387399 6.575521 -4.244490 114.349094 -0.000004 -0.000002 0.000002 2.375467 -6.542210 44.640211 7.222615 -3.888177 123.454822 -0.000000 0.000003 -0.000002 2.745574 -6.923838 44.442289 7.225017 -3.886615 123.490298 -0.000006 -0.000001 0.000003 -10.268026 -14.528504 47.436279 6.314153 -4.353046 110.862904 -0.000000 0.000001 -0.000003 0.000000 -0.000002 -0.000000 0.000000 0.000000 -0.000000 0.000000 0.000000 -0.000000 0.000000 0.000000 -0.000000 0.000000 0.000000 -0.000000 0.000000 0.000000 -0.000000 0.000000 0.000000 -0.000000 0.000000 0.000000 -0.000000 0.000000 0.000000 -0.000000 0.000000 0.000000 -0.000000 0.000000 0.000000 -0.000000 0.000000 0.000000 -0.000000 0.000000 0.000000 -0.000000 0.000000 0.000000 -0.000000 
